<?xml version="1.0" encoding="utf-8"?>
<!-- Generator: Adobe Illustrator 24.1.2, SVG Export Plug-In . SVG Version: 6.00 Build 0)  -->
<svg version="1.1" id="Layer_1" xmlns="http://www.w3.org/2000/svg" xmlns:xlink="http://www.w3.org/1999/xlink" x="0px" y="0px"
	 viewBox="0 0 860.1 571.1" style="enable-background:new 0 0 860.1 571.1;" xml:space="preserve">
<style type="text/css">
	.st0{fill:#1E3851;}
	.st1{opacity:0.1;fill:#407BFF;enable-background:new    ;}
	.st2{fill:#F2F2F2;}
	.st3{fill:#6C63FF;}
	.st4{fill:#3F3D56;}
	.st5{fill:#102D44;}
	.st6{fill:#0D2438;}
	.st7{fill:#213D54;}
	.st8{fill:#264056;}
	.st9{fill:#244159;}
	.st10{fill:#407BFF;}
	.st11{opacity:0.3;fill:#FFFFFF;enable-background:new    ;}
	.st12{fill:#263238;}
	.st13{opacity:0.4;fill:#407BFF;enable-background:new    ;}
	.st14{opacity:0.4;fill:#FFFFFF;enable-background:new    ;}
	.st15{opacity:0.3;enable-background:new    ;}
	.st16{opacity:0.6;fill:#407BFF;enable-background:new    ;}
	.st17{fill:#FF5652;}
	.st18{fill:#FF8B7B;}
	.st19{opacity:0.2;enable-background:new    ;}
	.st20{opacity:0.2;}
	.st21{opacity:0.5;fill:#FFFFFF;enable-background:new    ;}
	.st22{opacity:0.7;fill:#FFFFFF;enable-background:new    ;}
	.st23{opacity:0.7;fill:#102D44;enable-background:new    ;}
</style>
<path class="st0" d="M435.7,160.5c-7.7-12.7-16.8-26.2-31-30.4c-16.5-4.8-33.4,4.7-47.8,14.1c-42.9,28.1-84.3,58.6-123.9,91.3l0,0.5
	c30.8-2.1,61.6-4.3,92.5-6.4c22.3-1.5,45.3-3.3,65-13.8c7.5-4,14.7-9.3,23.2-9.7c10.5-0.5,19.7,6.9,26.9,14.5
	c42.6,45.4,54.9,114.8,102.7,154.6C513.2,301,477.2,229.2,435.7,160.5z"/>
<path class="st1" d="M697.6,545.4c-4.7-5.9-6.6-7.3-11.3-13.3c-37.8-48.9-73.4-99.5-106.7-151.8c-22.6-35.5-44.1-71.7-64.5-108.5
	c-9.7-17.5-19.1-35.2-28.3-53c-7.1-13.8-14.1-27.7-20.9-41.6c-1.9-4-3.8-8-5.7-12c-4.4-9.4-8.8-18.9-13.4-28.2
	c-5.3-10.6-11.8-21.7-21.6-28.9c-4.4-3.4-9.8-5.4-15.3-5.9c-7.9-0.5-15.3,2.8-22.2,6.4c-50.4,26.3-97.7,59.3-140.4,96.8
	c-42.8,37.6-81.1,80.1-114,126.6c-1,1.4-3.4,0.1-2.4-1.4c4-5.7,8.1-11.3,12.3-16.8c51.8-68.9,115.3-128.1,187.6-175
	c12.2-7.9,24.6-15.4,37.2-22.5c6.4-3.6,12.8-7.2,19.3-10.5c6.4-3.3,13.1-6.2,20.4-6.3c24.8-0.4,37.6,27.7,46.4,46.5
	c2.8,5.9,5.6,11.9,8.4,17.8c10.7,22.4,21.8,44.6,33.4,66.6c7.1,13.6,14.4,27.1,21.8,40.5c23.1,41.8,47.7,82.8,73.8,122.9
	c34.5,53.1,68.7,100.1,108,149.8C700.7,544.8,698.7,546.7,697.6,545.4z"/>
<path class="st1" d="M245,191.4c-1.4-1.6-2.9-3.2-4.3-4.8c-11.4-12.6-23.7-25.1-39.4-32.4c-7.5-3.6-15.6-5.5-23.9-5.5
	c-8.6,0-16.9,2.3-24.8,5.4c-3.7,1.5-7.4,3.2-11,5c-4.1,2.1-8.2,4.3-12.2,6.5c-7.6,4.2-15,8.5-22.4,13.1c-14.6,9-28.8,18.8-42.5,29.2
	c-7.1,5.4-14.1,11-20.9,16.8c-6.3,5.4-12.6,10.9-18.6,16.5c-1.3,1.2-3.2-0.7-1.9-1.9c1.6-1.5,3.2-3,4.8-4.4c4.6-4.1,9.2-8.2,14-12.2
	c8.6-7.3,17.5-14.3,26.5-21c14.1-10.5,28.7-20.2,43.8-29.2c7.5-4.5,15.2-8.8,22.9-13c2.3-1.2,4.7-2.5,7.1-3.6
	c5.4-2.7,11.1-5,16.9-6.9c8.2-2.7,16.9-3.5,25.5-2.5c8.3,1.2,16.3,4,23.5,8.1c15.4,8.6,27.3,21.9,39,34.9
	C248.1,190.7,246.2,192.7,245,191.4z"/>
<path class="st1" d="M560.5,322.3l36.9-13.5l18.3-6.7c6-2.2,11.9-4.7,18.1-6.2c5.4-1.5,11.1-1.5,16.4,0.2c4.7,1.8,9.1,4.4,12.8,7.9
	c3.8,3.5,7.3,7.2,10.5,11.2c4,4.8,7.9,9.6,11.9,14.5c16.3,19.9,32.5,39.9,48.6,60c16.1,20.1,32.1,40.3,47.9,60.6
	c15.9,20.3,31.7,40.7,47.4,61.2c1.9,2.5,3.8,5,5.8,7.5c1.1,1.4,3.4,0,2.4-1.4c-15.8-20.7-31.7-41.3-47.7-61.8
	c-16.1-20.6-32.2-41.1-48.5-61.5c-16.3-20.4-32.7-40.7-49.2-60.9c-4.1-5-8.2-10.1-12.4-15.1c-3.5-4.2-6.9-8.5-10.7-12.5
	c-7-7.2-15.8-13.6-26.2-13.8c-6.2-0.1-12.1,1.9-17.8,3.9c-6.2,2.2-12.3,4.5-18.5,6.8l-37.2,13.6l-9.3,3.4
	C558.2,320.2,558.9,322.9,560.5,322.3L560.5,322.3z"/>
<path class="st0" d="M196.4,170.1c-18.8-9.6-42.8-7.8-60,4.3c32.9,5.7,65.4,13.3,97.4,22.7C220.5,189.3,210.1,177.1,196.4,170.1z"/>
<path class="st2" d="M136.3,174.4l-3.6,2.9c1.2-1,2.5-2,3.8-2.9C136.4,174.4,136.3,174.4,136.3,174.4z"/>
<path class="st3" d="M661.6,322.4c-3.6-4.4-7.6-9.1-13-10.8l-5.1,0.2C682.2,380,734.3,439.6,796.8,487
	C751.7,432.1,706.7,377.3,661.6,322.4z"/>
<path class="st1" d="M346.1,285.9c2.3,8.5,7.6,16,14.9,21c2.8,1.9,6.2,3.8,7.1,7c0.5,2.1,0.2,4.3-0.9,6.1c-1.1,1.8-2.4,3.5-3.9,5
	l-0.1,0.5c-7-4.1-13.7-9.4-17.5-16.6C341.9,301.9,341.4,292.5,346.1,285.9"/>
<path class="st1" d="M579.1,488.9c2.3,8.5,7.6,16,14.9,21c2.8,1.9,6.2,3.8,7.1,7c0.5,2.1,0.2,4.3-0.9,6.1c-1.1,1.8-2.4,3.5-3.9,5
	l-0.1,0.5c-7-4.1-13.7-9.4-17.5-16.6S574.4,495.5,579.1,488.9"/>
<path class="st3" d="M114.1,474.9c2.3,8.5,7.6,16,14.9,21c2.8,1.9,6.2,3.8,7.1,7c0.5,2.1,0.2,4.3-0.9,6.1c-1.1,1.8-2.4,3.5-3.9,5
	l-0.1,0.5c-7-4.1-13.7-9.4-17.5-16.6S109.4,481.5,114.1,474.9"/>
<circle class="st3" cx="649.2" cy="51" r="51"/>
<path class="st0" d="M741.3,11.9c-24.7-3.3-52.9,10-59.3,34.1c-4.2-11.2-16.7-16.8-27.8-12.6c-6.5,2.5-11.5,7.9-13.3,14.7l2.8,2
	c53,11.5,107.8,11.2,160.7-0.7C787.1,31.3,766,15.2,741.3,11.9z"/>
<path class="st0" d="M635.3,79.9c-24.7-3.3-52.9,10-59.3,34.1c-4.2-11.2-16.7-16.8-27.8-12.6c-6.5,2.5-11.5,7.9-13.3,14.7l2.8,2
	c53,11.5,107.8,11.2,160.7-0.7C681.1,99.3,660,83.2,635.3,79.9z"/>
<path class="st1" d="M851,92.7c-0.1,0-0.2,0-0.3,0C586.3,9.1,353.3,20,204.3,43.9c-20.3,3.3-40.6,7-60.4,11.2
	c-5.1,1.1-10.3,2.2-15.6,3.4c-6.3,1.4-12.6,2.9-18.5,4.3c-2.6,0.6-5.1,1.2-7.6,1.8c-3.8,0.9-7.6,1.9-11.7,3
	c-4.6,1.2-9.2,2.4-13.8,3.7c0,0,0,0-0.1,0l0,0c-5.2,1.4-10.3,2.9-15.3,4.3c-2.7,0.8-5.3,1.5-7.8,2.3c-0.3,0.1-0.5,0.2-0.8,0.2
	l-0.5,0.2c-0.3,0.1-0.6,0.2-0.9,0.3l0,0l0,0l-0.8,0.3c-1,0.3-1.9,0.6-2.8,0.9c-24.5,7.6-38,12.9-38.2,13c-0.5,0.2-1.1,0-1.3-0.6
	s0-1.1,0.6-1.3c0.1-0.1,13.7-5.5,38.3-13.1c0.9-0.3,1.9-0.6,2.8-0.9l0.8-0.2c0,0,0.1,0,0.1,0c0.3-0.1,0.6-0.2,0.9-0.3l0.5-0.2
	c0.3-0.1,0.5-0.2,0.8-0.2c2.5-0.8,5.1-1.5,7.8-2.3c5-1.5,10.1-2.9,15.3-4.3c0,0,0,0,0,0v0c4.6-1.3,9.3-2.5,13.8-3.7
	c4.1-1.1,7.9-2,11.7-3c2.5-0.6,5-1.2,7.6-1.9c6-1.5,12.2-2.9,18.6-4.3c5.3-1.2,10.6-2.3,15.6-3.4c19.8-4.2,40.2-7.9,60.5-11.2
	C353.2,18,586.5,7,851.3,90.8c0.5,0.2,0.8,0.7,0.7,1.3C851.8,92.4,851.4,92.7,851,92.7z"/>
<path class="st3" d="M263,419.8c-0.3-1-0.9-1.9-1.7-2.7c-0.3-0.3-0.6-0.5-0.9-0.7c-2.6-1.7-6.5-2.1-9,0c-0.2,0.2-0.5,0.5-0.7,0.7
	c-0.7,0.9-1.5,1.8-2.3,2.7c-1.3,1.5-2.6,2.9-4,4.2c-0.4,0.4-0.8,0.8-1.2,1.2c-0.2,0.2-0.5,0.5-0.7,0.7c-0.9,0.8-1.8,1.7-2.7,2.5
	c-0.5,0.4-1,0.8-1.5,1.3c-0.7,0.6-1.5,1.2-2.2,1.8c-0.1,0-0.1,0.1-0.2,0.2c0,0,0,0,0,0c0,0,0,0,0,0c0,0-0.1,0-0.1,0
	c-0.2,0.2-0.4,0.3-0.5,0.3c0,0,0.1,0,0.1-0.1c-0.2,0.1-0.4,0.3-0.5,0.4c-1.8,1.3-3.5,2.5-5.4,3.7c-4.5,2.9-9.3,5.4-14.2,7.5
	c-0.3,0.1-0.7,0.3-1,0.4c-12.9,5.3-26.9,7.4-40.9,6c-1.4-0.1-2.8-0.3-4.3-0.5c-1.6-0.2-3.3-0.5-4.9-0.9c-6.2-1.2-12.2-3.1-18-5.4
	c-7.3-3.3-14.2-7.4-20.7-12.1c-1-0.7-2-1.4-3-2.1c1.1-2.8,2.3-5.6,3.4-8.5c0.5-1.4,1.1-2.7,1.6-4.1c4.1-10.6,7.9-21.4,11.6-32.1
	c3.7-10.9,7.2-21.9,10.5-32.9c0.3-1.1,0.7-2.2,1-3.4c1.7-5.8,3.4-11.7,5-17.5c0.1-0.6,0.3-1.1,0.5-1.7c0.5-1.7,0.9-3.4,1.4-5
	c1-3.8-1.3-8.3-5.2-9.2c-4-1-8.1,1.3-9.2,5.2c-0.4,1.6-0.9,3.2-1.3,4.8c-2.1,7.8-4.3,15.6-6.7,23.4c-0.3,1.1-0.7,2.2-1,3.4
	c-5.1,16.9-10.8,33.7-16.9,50.3c-0.7,2-1.5,4-2.3,6c-0.4,1-0.7,2-1.1,2.9c-0.7,1.9-1.5,3.9-2.2,5.8c-0.4,1.1-0.9,2.3-1.3,3.4
	c-0.3,0.7-0.6,1.4-0.9,2.1c-2.9-1-5.8-1.7-8.8-2.1l-0.5-0.1c-2.3-0.3-4.7-0.3-7,0.1c-7,0.8-13.4,4.7-17.2,10.7
	c-4.8,7.5-4.7,18.3,2,24.6c6.9,6.6,17.3,6.5,25.4,2.4c4.3-2.3,7.9-5.7,10.5-9.9c1-1.5,1.9-3.1,2.7-4.7c0.2,0.1,0.4,0.3,0.6,0.4
	c0.8,0.6,1.6,1.1,2.4,1.7c4.6,3.3,9.5,6.3,14.5,8.9c10.9,5.4,22.6,8.9,34.6,10.5c0.3,0,0.5,0.1,0.8,0.1c1.3,0.2,2.7,0.3,4,0.4
	c19.2,1.4,38.5-2.5,55.6-11.4c1.4-0.8,2.9-1.5,4.3-2.4c2.2-1.3,4.4-2.6,6.5-4.1c1.1-0.8,2.3-1.6,3.4-2.4c4.9-3.6,9.4-7.6,13.5-12
	c1.6-1.6,3.1-3.4,4.5-5.1c1.4-1.4,2.1-3.3,2.2-5.3C263.5,421.6,263.3,420.7,263,419.8z M97.4,443.7c0.2-0.2,0.4-0.3,0.6-0.5
	C98,443.3,97.7,443.5,97.4,443.7L97.4,443.7z M100.6,440.4c-0.2,0.3-0.4,0.5-0.7,0.8c-0.7,0.8-1.5,1.5-2.3,2.2
	c-0.1,0.1-0.2,0.2-0.4,0.3c0,0,0,0,0,0c0,0,0,0,0,0c-0.1,0.1-0.3,0.1-0.4,0.2c-0.4,0.3-0.9,0.5-1.3,0.7c-0.9,0.3-1.8,0.6-2.7,0.8
	c-0.7,0.1-1.4,0.1-2.1,0h0c-0.5-0.1-1-0.2-1.5-0.4c-0.2-0.1-0.5-0.3-0.7-0.4c-0.1-0.1-0.2-0.2-0.2-0.2c-0.1-0.1-0.2-0.2-0.3-0.3
	c0,0,0,0,0,0c0,0,0,0,0,0c-0.1-0.2-0.2-0.4-0.3-0.6c0,0,0,0,0,0c-0.1-0.3-0.1-0.5-0.2-0.8c0-0.5,0-0.9,0-1.4
	c0.1-0.6,0.3-1.3,0.5-1.9c0.2-0.4,0.4-0.9,0.7-1.3c0,0,0.1-0.2,0.2-0.4c0,0,0,0,0,0c0.1-0.2,0.3-0.3,0.5-0.5
	c0.3-0.3,0.6-0.6,0.9-0.8c0.6-0.4,1.1-0.7,1.8-1c1-0.3,1.9-0.6,2.9-0.8c1.5-0.1,2.9-0.1,4.4,0c1.4,0.2,2.8,0.6,4.1,1
	c-0.8,1.6-1.7,3.1-2.8,4.5C100.7,440.3,100.6,440.4,100.6,440.4z M89.5,437.1c-0.1,0.1-0.2,0.3-0.3,0.4
	C89.3,437.4,89.4,437.3,89.5,437.1L89.5,437.1z"/>
<path class="st3" d="M232.9,317.7c-0.1,3.1-0.2,6.3-0.3,9.4c-0.2,7-0.4,13.9-0.6,20.9c-0.2,7.8-0.4,15.7-0.7,23.5
	c-0.1,4.1-0.2,8.1-0.3,12.2c-0.3,10.9-0.6,21.8-0.9,32.7c0,1.1-0.1,2.3-0.1,3.4c-0.1,5.4-0.3,10.8-0.5,16.2
	c-0.2,5.9-0.3,11.7-0.5,17.6c-0.1,4.4-0.2,8.8-0.4,13.2c-0.9,31.9-1.8,63.9-2.7,95.8c-0.1,4.1-3.4,7.4-7.5,7.5
	c-4.1,0-7.5-3.4-7.5-7.5c0.5-18,1-35.9,1.5-53.9c0.5-16.2,0.9-32.5,1.4-48.7c0.1-5.4,0.3-10.7,0.5-16.1c0.2-8.1,0.5-16.1,0.7-24.2
	c0-1.1,0.1-2.3,0.1-3.4c0-1,0-2,0.1-3c0.4-15.7,0.9-31.3,1.3-47c0.2-6.2,0.4-12.3,0.5-18.5c0.2-7,0.4-14.1,0.6-21.1
	c0.1-3.1,0.2-6.2,0.3-9.3c0.1-4.1,3.4-7.4,7.5-7.5C229.6,310.2,232.9,313.6,232.9,317.7z"/>
<path class="st3" d="M644.4,319.8c-7.9,29.8-17.3,59.1-28.2,87.9c-3,7.9-6.1,15.9-9.4,23.7l0.8-1.8c-1.5,3.7-3.3,7.3-5.6,10.6
	c-0.2,0.2-0.3,0.4-0.5,0.6c0.8-1,0.9-1.2,0.4-0.6c-0.3,0.3-0.5,0.6-0.8,0.9c-0.7,0.8-1.5,1.5-2.2,2.2c-0.2,0.2-0.4,0.3-0.6,0.5
	l0.9-0.7c-0.1,0.3-0.9,0.6-1.1,0.7c-0.8,0.5-1.6,0.9-2.4,1.2l1.8-0.8c-1.4,0.5-2.8,0.9-4.2,1.2l2-0.3c-1.4,0.2-2.9,0.2-4.3,0l2,0.3
	c-1.2-0.2-2.3-0.5-3.4-0.9l1.8,0.8c-0.6-0.3-1.1-0.6-1.7-0.9c-0.3-0.2-1.1-0.8,0,0c1.1,0.9,0.1,0.1-0.1-0.2
	c-0.2-0.2-0.4-0.4-0.6-0.6c-0.9-0.9,1,1.6,0.4,0.5c-0.3-0.5-0.6-1.1-0.9-1.6l0.8,1.8c-0.3-0.9-0.6-1.7-0.7-2.7l0.3,2
	c-0.1-1.1-0.1-2.3,0-3.4l-0.3,2c0.2-1.3,0.5-2.5,1-3.7l-0.8,1.8c0.3-0.8,0.7-1.6,1.2-2.3c0.2-0.4,0.5-0.7,0.7-1.1
	c0,0-1.3,1.5-0.6,0.8c0.2-0.2,0.4-0.4,0.5-0.6c0.3-0.3,0.6-0.6,0.9-0.9c1-1-1.5,1-0.3,0.2c0.9-0.6,1.8-1.1,2.7-1.5l-1.8,0.8
	c1.6-0.7,3.3-1.1,5-1.3l-2,0.3c2.1-0.2,4.3-0.2,6.5,0.1l-2-0.3c2.7,0.4,5.4,1.2,7.9,2.2l-1.8-0.8c5.4,2.3,10.2,5.7,14.9,9.1
	c4.6,3.3,9.5,6.3,14.5,8.9c10.9,5.4,22.6,8.9,34.6,10.5c35.1,4.3,70-9.5,92.6-36.8c1.4-1.4,2.1-3.3,2.2-5.3c0-2-0.8-3.9-2.2-5.3
	c-2.8-2.5-7.9-3.2-10.6,0c-2.5,3.1-5.2,6-8.1,8.7c-1.3,1.3-2.7,2.5-4.1,3.7c-0.8,0.7-1.6,1.4-2.5,2c-0.4,0.3-1.6,1.1,0.3-0.2
	c-0.4,0.3-0.8,0.6-1.3,1c-6.3,4.6-13.1,8.5-20.3,11.6l1.8-0.8c-7.7,3.2-15.9,5.5-24.2,6.6l2-0.3c-8.5,1.1-17.2,1.1-25.8,0l2,0.3
	c-8.5-1.2-16.9-3.4-24.9-6.8l1.8,0.8c-7.7-3.4-15-7.6-21.7-12.6c-3.5-2.6-7.2-4.9-11.1-7c-4.5-2.3-9.4-3.8-14.4-4.4
	c-9.4-1.1-19.1,2.6-24.2,10.7c-4.8,7.5-4.7,18.2,2,24.6c6.9,6.6,17.3,6.5,25.4,2.4c7.8-4,12.5-12.2,15.8-19.9
	c7.4-17.5,14-35.3,20.1-53.3c6.1-17.8,11.6-35.7,16.5-53.8c0.6-2.2,1.2-4.5,1.8-6.7c1-3.8-1.3-8.3-5.2-9.2
	C649.6,313.5,645.5,315.8,644.4,319.8L644.4,319.8z"/>
<path class="st3" d="M719.2,317.7l-2.7,95.8l-2.7,95.3l-1.5,53.9c0,4.1,3.4,7.5,7.5,7.5c4.1-0.1,7.4-3.4,7.5-7.5l2.7-95.8l2.7-95.3
	l1.5-53.9c0-4.1-3.4-7.5-7.5-7.5C722.6,310.3,719.3,313.6,719.2,317.7z"/>
<path class="st1" d="M459.6,535.9h2.3v-106h54.3v-2.3h-54.3v-44.7h42c-0.6-0.8-1.2-1.6-1.9-2.3h-40.1V351c-0.8-0.3-1.5-0.6-2.3-0.9
	v30.5h-45.7v-37.9c-0.8,0-1.6,0.1-2.3,0.2v37.7h-36.4v-28.3c-0.8,0.3-1.6,0.7-2.3,1.1v27.2h-30.6v2.3h30.6v44.7h-30.6v2.3h30.6v106
	h2.3v-106c20.1,0,36.4,16.3,36.4,36.4c0,0,0,0,0,0v69.6h2.3v-106h45.7V535.9z M375.2,427.6v-44.7h36.4v44.7H375.2z M413.9,427.6
	v-44.7h0.9c24.7,0,44.7,20,44.7,44.7c0,0,0,0,0,0H413.9z"/>
<path class="st4" d="M445.4,504.1c-2.9,13.1-10,24.9-20,33.7c-0.7,0.6-1.5,1.3-2.3,1.9c-1.9,0.2-3.7,0.3-5.6,0.5
	c-1.5,0.1-3,0.3-4.5,0.4l-0.3,0l-0.2-1.6l-0.8-6.6c-6-9.8-7.2-21.7-3.3-32.4c2.6-7.1,7.4-13.4,12.1-19.7c6.5-8.6,12.8-17.1,13-27.7
	c3.2,4.1,5.8,8.6,7.9,13.3c-1.9,0.9-3.7,2.2-5.1,3.8c-0.4,0.5-0.8,1.1-0.5,1.6c0.2,0.5,0.8,0.6,1.4,0.6c1.3,0.1,2.5,0.3,3.8,0.4
	c1,0.1,2,0.2,3,0.3c1.2,4,2,8.1,2.5,12.2C447.1,491.3,446.7,497.8,445.4,504.1z"/>
<path class="st3" d="M478.6,477.9c-5.9,4.3-9.3,10.5-12,17.3c-2.7,0.9-5.2,2.5-7.2,4.6c-0.4,0.5-0.8,1.1-0.5,1.6
	c0.2,0.5,0.8,0.6,1.4,0.6c1.3,0.1,2.5,0.3,3.8,0.4c-2.7,8-5.1,16.4-9.9,23.2c-3.2,4.5-7.3,8.2-12,10.9c-1.3,0.7-2.6,1.4-4,2
	c-5.1,0.4-10.1,0.8-15,1.3c-1.9,0.2-3.7,0.3-5.6,0.5c-1.5,0.1-3,0.3-4.5,0.4c0-0.5,0-1.1,0-1.7c0.3-14.7,5.7-28.7,15.3-39.9
	c0.5-0.5,0.9-1,1.4-1.5c4.8-5.2,10.5-9.5,16.8-12.7C456.3,479.8,467.4,477.3,478.6,477.9z"/>
<path class="st3" d="M419.2,535.1l-1.2,3.4l-0.6,1.7c-1.5,0.1-3,0.3-4.5,0.4l-0.3,0c-1.7,0.2-3.3,0.3-5,0.5c-0.4-0.5-0.9-1-1.3-1.5
	c-21.7-26.3-18.1-65.2,8.1-87.1c-1.3,6.9,0.2,13.5,2.8,20.1c-0.3,0.1-0.5,0.2-0.8,0.3c-1.9,0.9-3.7,2.2-5.1,3.8
	c-0.4,0.5-0.8,1.1-0.5,1.6c0.2,0.5,0.8,0.6,1.4,0.6c1.3,0.1,2.5,0.3,3.8,0.4c1,0.1,2,0.2,3,0.3c0.5,0,0.9,0.1,1.4,0.2
	c0.1,0.2,0.1,0.3,0.2,0.4c2.8,6.2,5.9,12.4,7.7,18.8c0.4,1.6,0.8,3.3,1,4.9C430.8,515.4,427.1,526.8,419.2,535.1z"/>
<path class="st3" d="M519.9,390.1c-8.6-16.8-21.9-30.9-37.6-41.3c-15.7-10.4-33.8-16.7-52.6-18.4c-2.5-0.2-4.9-0.4-7.4-0.4
	c-2.9,0-46.9,12.6-61.6,23c-14.7,10.2-26.8,23.8-35.3,39.5c-8.5,15.8-12.7,33.7-12.1,51.6c0.7,18.1,5.8,35.7,14.7,51.5
	c8.8,15.7,21.3,29,36.4,38.7c15.3,9.8,30.7,35.7,48.9,36.7c18.2,0.9,39.1-23.6,55.7-31c16.6-7.5,31-19.2,41.7-34
	c10.4-14.5,17.1-31.3,19.6-48.9c2.6-18.1,1.4-36.7-4.8-54C523.9,398.6,522,394.3,519.9,390.1c-1.8-3.5-7-4.8-10.3-2.7
	c-3.5,2.2-4.7,6.7-2.7,10.3c1,2.1,2,4.2,2.9,6.3l-0.8-1.8c3.4,8.2,5.7,16.8,6.9,25.5l-0.3-2c1.2,9.5,1.2,19.2-0.1,28.7l0.3-2
	c-1.3,9.5-3.8,18.8-7.6,27.7l0.8-1.8c-1.9,4.5-4.1,8.9-6.7,13.1c-1.3,2.1-2.6,4.2-4.1,6.2c-0.6,0.9-1.3,1.8-1.9,2.6
	c-0.9,1.1,1.2-1.5,0.3-0.4c-0.2,0.2-0.3,0.4-0.5,0.6c-0.5,0.6-0.9,1.1-1.4,1.7c-3.1,3.7-6.5,7.2-10.2,10.4c-0.9,0.8-1.8,1.6-2.8,2.3
	c-0.5,0.4-0.9,0.8-1.4,1.1c0,0,1.6-1.2,0.7-0.5c-0.3,0.2-0.6,0.4-0.9,0.7c-1.9,1.4-3.9,2.8-6,4.1c-4.7,3-9.6,5.5-14.8,7.7l1.8-0.8
	c-8.8,3.7-18.1,6.3-27.6,7.6l2-0.3c-9.5,1.3-19.1,1.3-28.6,0.1l2,0.3c-8.6-1.2-17.1-3.4-25.1-6.8l1.8,0.8c-4.7-2-9.1-4.3-13.4-7
	c-2.1-1.3-4.2-2.7-6.2-4.2c-0.3-0.2-0.6-0.4-0.9-0.6c-0.9-0.7,0.7,0.5,0.7,0.5c-0.5-0.4-1-0.8-1.5-1.2c-1-0.8-1.9-1.6-2.9-2.4
	c-3.8-3.3-7.3-6.9-10.5-10.7c-0.8-1-1.6-1.9-2.4-2.9c-0.3-0.4-0.9-1.3,0.4,0.5c-0.2-0.2-0.4-0.5-0.5-0.7c-0.4-0.6-0.9-1.1-1.3-1.7
	c-1.5-2-2.9-4.1-4.2-6.2c-3-4.8-5.6-9.9-7.8-15.1l0.8,1.8c-3.6-8.6-6.1-17.6-7.3-26.8l0.3,2c-1.1-8.5-1.2-17.1,0-25.6l-0.3,2
	c1.1-8.2,3.4-16.3,6.6-24l-0.8,1.8c2-4.8,4.4-9.4,7.2-13.9c1.4-2.2,2.8-4.4,4.4-6.5c0.4-0.5,0.7-1,1.1-1.4c0.3-0.4,1.2-1.5-0.3,0.4
	c0.1-0.2,0.3-0.4,0.4-0.6c0.8-1.1,1.7-2.1,2.6-3.2c3.4-3.9,7-7.6,10.9-11c1-0.9,2-1.7,3-2.5c0.5-0.4,0.9-0.7,1.4-1.1
	c0.2-0.1,0.4-0.3,0.6-0.4c-2,1.6-0.6,0.4-0.1,0.1c2.1-1.6,4.2-3.1,6.4-4.5c4.9-3.1,10-5.8,15.4-8.1l-1.8,0.8
	c7.8-3.3,42.1-10.9,48.4-10.1l-2-0.3c9.2,1.3,18.2,3.8,26.7,7.4l-1.8-0.8c4.3,1.8,8.5,4,12.6,6.3c2,1.2,4,2.4,6,3.8
	c0.9,0.6,1.8,1.3,2.7,1.9c0.5,0.3,0.9,0.7,1.3,1c0.2,0.2,0.5,0.4,0.7,0.6c1,0.8-1.4-1.1-0.3-0.3c3.6,2.9,7.1,6,10.4,9.3
	c1.6,1.6,3.1,3.3,4.6,5c0.8,0.9,1.5,1.8,2.2,2.7c0.4,0.5,1.6,2.1,0.1,0.1c0.4,0.5,0.7,1,1.1,1.5c3.2,4.3,6,8.8,8.4,13.5
	c1.8,3.5,7,4.8,10.3,2.7C520.7,398.2,521.9,393.7,519.9,390.1z"/>
<path class="st5" d="M432.5,512.5c-2.1,0.1-3.9-1.5-3.9-3.6c-0.1-1.1,0.4-2.2,1.2-2.9c0.1-0.4,0.2-0.7,0.3-1c0-0.1-0.1-0.2-0.1-0.2
	c-3.5-8.3-25.7,14.8-26.6,22.6c-0.4,3.4-0.2,6.9,0.5,10.3c-7.2-15.7-10.9-32.7-11-50c0-4.3,0.2-8.7,0.7-13c0.4-3.5,1-7,1.7-10.5
	c3.9-18.9,12.1-36.6,24.2-51.6c6.9,0.4,12.9-0.7,13.5-14c0.1-2.4,1.9-4.4,2.2-6.8c-0.7,0.1-1.3,0.1-2,0.2c-0.2,0-0.4,0-0.6,0l-0.1,0
	c-2.1,0.1-3.8-1.5-3.9-3.6c0-0.9,0.3-1.8,0.8-2.5c0.3-0.3,0.6-0.7,0.9-1c0.4-0.5,0.9-1.1,1.3-1.6c0-0.1,0.1-0.1,0.1-0.2
	c0.5-0.6,1-1.2,1.5-1.8c-0.9-1.4-2.1-2.6-3.6-3.4c-5-2.9-11.8-0.9-15.4,3.6c-3.6,4.5-4.3,10.8-3,16.4c1.2,4.8,3.3,9.3,6,13.4
	c-0.3,0.3-0.5,0.7-0.8,1c-4.9,6.3-9.2,13.1-12.8,20.3c1-7.9-11.4-36.6-16.2-42.7c-5.8-7.3-17.6-4.1-18.6,5.1c0,0.1,0,0.2,0,0.3
	c0.7,0.4,1.4,0.8,2.1,1.3c2.4,1.6,3,4.8,1.4,7.1c-0.8,1.2-2.1,2-3.5,2.2l-0.1,0c-9.6,13.6,21.1,49.2,28.7,41.2
	c-3.6,10.2-5.9,20.9-6.7,31.7c-0.5,6.4-0.5,12.8,0.1,19.2l0-0.2c-1.7-13.9-30.9-34.5-39.5-32.8c-4.9,1-9.8,0.8-9,5.7
	c0,0.1,0,0.2,0,0.2c1.3,0.5,2.6,1.2,3.9,1.9c0.7,0.4,1.4,0.8,2.1,1.3c2.4,1.6,3,4.8,1.4,7.1c-0.8,1.2-2.1,2-3.5,2.2l-0.1,0
	c-0.1,0-0.1,0-0.2,0c-4.3,15,27.9,39.1,47.5,31.4h0c1.9,8.4,4.8,16.7,8.4,24.5h30c0.1-0.3,0.2-0.7,0.3-1c-2.8,0.2-5.6,0-8.3-0.5
	c2.2-2.7,4.5-5.5,6.7-8.2c0-0.1,0.1-0.1,0.1-0.2c1.1-1.4,2.3-2.8,3.4-4.2l0,0C434,520.9,433.5,516.6,432.5,512.5L432.5,512.5z
	 M398.1,444.8L398.1,444.8L398.1,444.8L398.1,444.8z M391.5,504.8l-0.3-0.6c0-0.4,0-0.8,0-1.3c0-0.1,0-0.2,0-0.4
	C391.3,503.3,391.4,504.1,391.5,504.8L391.5,504.8z"/>
<circle class="st3" cx="95.2" cy="439" r="11"/>
<circle class="st3" cx="227.2" cy="559" r="11"/>
<circle class="st3" cx="728.2" cy="559" r="11"/>
<circle class="st3" cx="755.2" cy="419" r="11"/>
<circle class="st3" cx="723.2" cy="317" r="11"/>
<path class="st3" d="M264.2,419c0,6-4.9,10.9-11,10.9c-6,0-10.9-4.9-10.9-11c0-6,4.9-10.9,11-10.9c5.2,0,9.7,3.7,10.7,8.8
	C264.2,417.6,264.3,418.3,264.2,419z"/>
<circle class="st3" cx="484.2" cy="349" r="11"/>
<path class="st3" d="M375.2,349c0,6-4.9,10.9-11,10.9c-6,0-10.9-4.9-10.9-11s4.9-10.9,11-10.9c5.2,0,9.7,3.7,10.7,8.8
	C375.2,347.6,375.3,348.3,375.2,349z"/>
<path class="st3" d="M233.2,317c0,6-4.9,10.9-11,10.9c-6,0-10.9-4.9-10.9-11c0-6,4.9-10.9,11-10.9c5.2,0,9.7,3.7,10.7,8.8
	C233.2,315.6,233.3,316.3,233.2,317z"/>
<circle class="st3" cx="599.2" cy="443" r="11"/>
<circle class="st3" cx="426.2" cy="338" r="16"/>
<path class="st3" d="M858.9,570.8L1.2,571.1c-0.7,0-1.2-0.5-1.2-1.2c0-0.7,0.5-1.2,1.2-1.2c0,0,0,0,0,0l857.8-0.3
	c0.7,0,1.2,0.5,1.2,1.2C860.1,570.3,859.6,570.8,858.9,570.8z"/>
<g id="Background_Complete">
	<g>
		<g>
			<rect x="-594.9" y="669" class="st0" width="500" height="0.2"/>
		</g>
		<g>
			<rect x="-420.4" y="678.5" class="st0" width="26" height="0.2"/>
			<rect x="-542.4" y="675.8" class="st0" width="54.1" height="0.2"/>
			<rect x="-447.7" y="687.8" class="st0" width="26.3" height="0.2"/>
			<rect x="-336.6" y="686.1" class="st0" width="38.8" height="0.2"/>
			<rect x="-288.9" y="686.1" class="st0" width="10.7" height="0.2"/>
			<rect x="-199.5" y="681.9" class="st0" width="54.6" height="0.2"/>
		</g>
	</g>
	<g>
		<g>
			<g>
				<rect x="-213.9" y="534.6" class="st5" width="45.7" height="125.5"/>
				<rect x="-413.2" y="660.1" class="st5" width="236.2" height="8.9"/>
				<rect x="-421.9" y="534.7" class="st0" width="208.1" height="125.5"/>
				<rect x="-421.9" y="543.1" class="st6" width="208.9" height="45.9"/>
				<rect x="-421.9" y="597.4" class="st6" width="208.9" height="45.9"/>
				<rect x="-213.8" y="543.2" class="st5" width="7.9" height="45.9"/>
				<rect x="-213.8" y="597.5" class="st5" width="7.9" height="45.9"/>
			</g>
			<rect x="-428" y="527" class="st5" width="214.2" height="7.7"/>
			<rect x="-213.8" y="526.9" class="st5" width="52" height="7.7"/>
		</g>
		<g>
			<rect x="-266.7" y="368.3" class="st0" width="107.4" height="135"/>
			<rect x="-290.5" y="368.3" class="st5" width="127" height="135"/>
			<rect x="-279.9" y="378.9" class="st0" width="105.7" height="113.8"/>
			<g>
				<path class="st5" d="M-215.2,448.1l20.2-9.4v-5.9l-20.2-9.3v7.1l12.3,5.3l-12.3,5.2V448.1z"/>
				<path class="st5" d="M-228.4,420.7h-3.7l6.5,30.1h3.7L-228.4,420.7z"/>
				<path class="st5" d="M-238.6,441.1l-12.3-5.3l12.3-5.3v-7.1l-20.2,9.4v5.9l20.2,9.4V441.1z"/>
			</g>
		</g>
		<g>
			<rect x="-477.6" y="439.8" class="st0" width="7" height="229.2"/>
			<path class="st0" d="M-479.1,667.4l-0.2-1c0.1,0,1.9-0.4,3.3-2.9c1.8-3.2,2.9-10.1-2.1-24.6c-7.8-22.3-3.2-40.3,6.2-76.2
				c1.6-6.2,3.5-13.3,5.4-21c7.2-28.7,0.5-46.4-4.8-60.7c-4.1-11.1-7.4-19.9-3.2-30l0.9,0.4c-4,9.8-0.8,18.4,3.2,29.3
				c5.4,14.4,12.1,32.4,4.8,61.3c-1.9,7.7-3.8,14.7-5.4,21c-9.3,35.7-13.9,53.6-6.2,75.6c5.2,14.9,4,22.1,2,25.5
				C-476.8,666.9-479,667.4-479.1,667.4z"/>
			<polygon class="st0" points="-486.9,669 -461.4,669 -468.5,664.8 -479.8,664.8 			"/>
			<polygon class="st0" points="-524.6,469 -423.7,469 -434.8,384.3 -513.5,384.3 			"/>
		</g>
		<g>
			<polygon class="st0" points="-375,483 -321.1,483 -328.2,526.9 -367.9,526.9 			"/>
			<g>
				<path class="st5" d="M-353.4,497.3c14.7-5.3,25.9-13.3,13.3-29.4c-12.6-16.1-32.1-16.1-45.2-8.9c-16.7,9.1-13.4,35.5-13.4,35.5
					S-368,502.6-353.4,497.3z"/>
				<path class="st0" d="M-339.1,482.6c-11.2-7.6-19.2-16.5-6.2-25.8c13-9.3,29.1-4.6,38.8,4.1c12.3,11.1,5.2,30.5,5.2,30.5
					S-327.9,490.2-339.1,482.6z"/>
				<path class="st7" d="M-358.9,463.2c13.1-0.8,24.2-4.2,17.9-18.5c-6.2-14.2-22-18.2-34.3-15.8c-15.7,3.1-19.4,22.8-19.4,22.8
					S-372,464-358.9,463.2z"/>
				<path class="st8" d="M-342.4,454.8c-10.9-3.5-19.5-8.8-11.2-19.5c8.3-10.7,22.5-10.6,32.4-5.9c12.6,6,11.5,23.5,11.5,23.5
					S-331.4,458.3-342.4,454.8z"/>
				<path class="st0" d="M-362.9,436.6c10.9,3.6,20.9,4.4,20.5-9.2c-0.4-13.5-11.9-21.8-22.7-23.9c-13.7-2.5-23.1,12.2-23.1,12.2
					S-373.8,433-362.9,436.6z"/>
				<path class="st5" d="M-335.2,430.8c-7.8,0.5-14.6-0.6-12-9.5c2.6-8.9,11.6-12.4,19-11.9c9.5,0.6,13.2,11.9,13.2,11.9
					S-327.4,430.2-335.2,430.8z"/>
			</g>
		</g>
	</g>
</g>
<g id="Shadow_1_">
	<ellipse id="_x3C_Path_x3E__327_" class="st9" cx="-344.9" cy="702.8" rx="193.9" ry="11.3"/>
</g>
<g id="Desk">
	<g>
		<g>
			<rect x="-515.4" y="537.7" class="st10" width="339.8" height="12.2"/>
			<rect x="-515.4" y="537.7" class="st11" width="90.9" height="12.2"/>
			<polygon class="st10" points="-423,549.9 -430.9,549.9 -426.7,702.7 -423,702.7 -419.2,702.7 -415.1,549.9 			"/>
			<polygon class="st11" points="-426.7,702.7 -423,702.7 -423,553.2 -430.8,554.6 			"/>
			<polygon class="st10" points="-497.9,549.9 -505.9,549.9 -501.7,702.7 -497.9,702.7 -494.2,702.7 -490,549.9 			"/>
			<polygon class="st11" points="-501.7,702.7 -497.9,702.7 -497.9,553.2 -505.7,554.6 			"/>
			<polygon class="st10" points="-193,549.9 -200.9,549.9 -196.8,702.7 -193,702.7 -189.2,702.7 -185.1,549.9 			"/>
			<polygon class="st11" points="-196.8,702.7 -193,702.7 -193,553.2 -200.8,554.6 			"/>
			<polygon class="st10" points="-268,549.9 -275.9,549.9 -271.8,702.7 -268,702.7 -264.2,702.7 -260.1,549.9 			"/>
			<polygon class="st11" points="-271.8,702.7 -268,702.7 -268,553.2 -275.8,554.6 			"/>
		</g>
		<g>
			<path class="st12" d="M-354.1,472.4h-80.8c-2.9,0-4.8,2.4-4.2,5.3l10.8,51.3c0.6,2.9,3.5,5.3,6.4,5.3h80.8c2.9,0,4.8-2.4,4.2-5.3
				l-10.8-51.3C-348.3,474.8-351.2,472.4-354.1,472.4z"/>
			<path class="st0" d="M-421.2,531.4c-1.9,0-3.9-1.7-4.3-3.6l-10.8-51.4c-0.2-0.8,0-1.5,0.4-2s1-0.7,1.7-0.7h80.8
				c1.9,0,3.9,1.7,4.3,3.6l10.8,51.3c0.2,0.8,0,1.5-0.4,2s-1,0.7-1.7,0.7L-421.2,531.4L-421.2,531.4z"/>
			<path class="st13" d="M-360.2,527.3l-10.2-48.7c-0.3-1.2,0.7-2.4,1.9-2.4h13.1c0.9,0,1.7,0.7,1.9,1.6l10.2,48.7
				c0.3,1.2-0.7,2.4-1.9,2.4h-13.1C-359.2,528.9-360,528.2-360.2,527.3z"/>
			<g>
				<polygon class="st10" points="-429.5,480.5 -430,478.4 -413.8,478.4 -413.3,480.5 				"/>
				<polygon class="st5" points="-422.1,485.7 -422.5,483.6 -394.1,483.6 -393.7,485.7 				"/>
				<polygon class="st5" points="-420.6,490.9 -421,488.8 -389.2,488.8 -388.7,490.9 				"/>
				<polygon class="st5" points="-419.1,496.2 -419.5,494.1 -393.9,494.1 -393.4,496.2 				"/>
			</g>
			<g>
				<polygon class="st10" points="-424.6,504.7 -425.1,502.6 -414.8,502.6 -414.4,504.7 				"/>
				<polygon class="st5" points="-417.1,509.9 -417.6,507.8 -405.1,507.8 -404.7,509.9 				"/>
				<polygon class="st5" points="-401.7,509.9 -402.1,507.8 -389.6,507.8 -389.2,509.9 				"/>
				<polygon class="st5" points="-415.6,515.1 -416.1,513 -373.9,513 -373.4,515.1 				"/>
				<polygon class="st5" points="-414.2,520.4 -414.6,518.3 -382.4,518.3 -382,520.4 				"/>
			</g>
			<path class="st12" d="M-316.3,534h-106.4c-2.9,0-4.8,1.6-4.2,3.7H-310C-310.6,535.7-313.4,534-316.3,534z"/>
		</g>
		<g>
			<path class="st1" d="M-457.7,459.4l-10.2-48.6c-0.3-1.2,0.7-2.4,1.9-2.4h82.6c0.9,0,1.7,0.7,1.9,1.6l10.3,48.6
				c0.3,1.2-0.7,2.4-1.9,2.4h-82.6C-456.7,461-457.5,460.4-457.7,459.4z"/>
			<g>
				<g>
					<g>
						<polygon class="st10" points="-428.3,410 -445.6,410 -446,408.1 -428.7,408.1 						"/>
						<polygon class="st13" points="-431.1,413 -438.1,413 -438.5,411.1 -431.5,411.1 						"/>
						<polygon class="st13" points="-419.5,413 -430.3,413 -430.6,411.1 -419.9,411.1 						"/>
						<polygon class="st13" points="-414.9,416 -437.5,416 -437.8,414.1 -415.3,414.1 						"/>
						<polygon class="st13" points="-417.7,418.9 -436.8,418.9 -437.2,417.1 -418.1,417.1 						"/>
					</g>
					<polygon class="st13" points="-405.1,450.5 -417.2,450.5 -416.8,452.4 -404.7,452.4 					"/>
					<g>
						<polygon class="st10" points="-420.2,446.5 -438,446.5 -438.4,444.6 -420.6,444.6 						"/>
						<polygon class="st13" points="-413.1,453.5 -429.6,453.5 -429.2,455.4 -412.7,455.4 						"/>
						<polygon class="st13" points="-418.1,450.5 -430.2,450.5 -429.9,452.4 -417.7,452.4 						"/>
						<polygon class="st13" points="-406.6,447.6 -430.9,447.6 -430.5,449.4 -406.2,449.4 						"/>
					</g>
					<g>
						<polygon class="st10" points="-428.9,396.1 -448.5,396.1 -448.9,394.3 -429.3,394.3 						"/>
						<polygon class="st13" points="-419.2,403.2 -440.9,403.2 -440.5,405.1 -418.8,405.1 						"/>
						<polygon class="st13" points="-423.5,400.2 -441.5,400.2 -441.1,402.1 -423.2,402.1 						"/>
						<polygon class="st13" points="-422.4,397.2 -442.1,397.2 -441.7,399.1 -422,399.1 						"/>
					</g>
					<g>
						<polygon class="st10" points="-429.1,423.8 -442.8,423.8 -443.2,421.9 -429.5,421.9 						"/>
						<polygon class="st13" points="-407.7,430.8 -434.4,430.8 -434,432.7 -407.3,432.7 						"/>
						<polygon class="st13" points="-423.9,427.9 -435,427.9 -434.6,429.7 -423.5,429.7 						"/>
						<polygon class="st13" points="-412,427.9 -423,427.9 -422.6,429.7 -411.6,429.7 						"/>
						<polygon class="st13" points="-411.3,424.9 -435.6,424.9 -435.2,426.7 -410.9,426.7 						"/>
						<polygon class="st13" points="-411.3,439.8 -432.5,439.8 -432.1,441.6 -410.9,441.6 						"/>
						<polygon class="st13" points="-427,436.8 -433.1,436.8 -432.7,438.6 -426.6,438.6 						"/>
						<polygon class="st13" points="-417.3,436.8 -426.1,436.8 -425.7,438.6 -416.9,438.6 						"/>
						<polygon class="st13" points="-409.4,433.8 -433.7,433.8 -433.3,435.7 -409,435.7 						"/>
					</g>
				</g>
				<g>
					<g>
						<polygon class="st13" points="-390.3,433.3 -399,433.3 -399.4,431.4 -390.7,431.4 						"/>
						<polygon class="st13" points="-375.8,433.3 -389.2,433.3 -389.6,431.4 -376.2,431.4 						"/>
						<polygon class="st13" points="-370.1,436.3 -398.4,436.3 -398.7,434.4 -370.5,434.4 						"/>
						<polygon class="st13" points="-373.8,439.3 -397.7,439.3 -398.1,437.4 -374.2,437.4 						"/>
					</g>
					<g>
						<polygon class="st13" points="-363.1,421.5 -390.2,421.5 -389.8,423.3 -362.7,423.3 						"/>
						<polygon class="st13" points="-368.4,418.5 -390.8,418.5 -390.4,420.4 -368,420.4 						"/>
						<polygon class="st10" points="-372.4,415.5 -397.2,415.5 -396.8,417.4 -372.1,417.4 						"/>
					</g>
					<g>
						<polygon class="st13" points="-361.9,451.2 -395.3,451.2 -394.9,453 -361.5,453 						"/>
						<polygon class="st13" points="-382.1,448.2 -395.9,448.2 -395.5,450.1 -381.7,450.1 						"/>
						<polygon class="st13" points="-367.1,448.2 -380.9,448.2 -380.5,450.1 -366.7,450.1 						"/>
						<polygon class="st13" points="-366.1,445.2 -396.5,445.2 -396.1,447.1 -365.7,447.1 						"/>
						<polygon class="st13" points="-366.9,460.1 -393.4,460.1 -393,461.9 -366.5,461.9 						"/>
						<polygon class="st13" points="-386.3,457.1 -394,457.1 -393.6,459 -385.9,459 						"/>
						<polygon class="st13" points="-374.2,457.1 -385.2,457.1 -384.9,459 -373.9,459 						"/>
						<polygon class="st13" points="-364.2,454.1 -394.6,454.1 -394.2,456 -363.8,456 						"/>
					</g>
				</g>
				<g>
					<polygon class="st13" points="-445.3,462.4 -466,462.4 -465.6,464.3 -444.9,464.3 					"/>
					<polygon class="st13" points="-451.4,459.4 -466.6,459.4 -466.2,461.3 -451,461.3 					"/>
					<polygon class="st13" points="-435.1,459.4 -450.3,459.4 -449.9,461.3 -434.7,461.3 					"/>
					<polygon class="st13" points="-436.8,456.4 -467.2,456.4 -466.9,458.3 -436.4,458.3 					"/>
				</g>
			</g>
		</g>
		<g>
			<polygon class="st10" points="-203.9,518.3 -216.8,518.3 -215.3,537.7 -205.4,537.7 			"/>
			<polygon class="st14" points="-203.9,518.3 -216.8,518.3 -215.3,537.7 -205.4,537.7 			"/>
		</g>
		<g>
			<polygon class="st12" points="-483.7,504.8 -465.3,504.8 -471.6,537.7 -490,537.7 			"/>
			<polygon class="st10" points="-460.2,496 -486.3,496 -479,537.7 -452.9,537.7 			"/>
			<g>
				<polygon class="st10" points="-487.8,496 -486.3,496 -479,537.7 -480.5,537.7 				"/>
				<polygon class="st15" points="-487.8,496 -486.3,496 -479,537.7 -480.5,537.7 				"/>
			</g>
			<polygon class="st0" points="-475.3,533.2 -481,500.4 -464,500.4 -458.2,533.2 			"/>
			<polygon class="st16" points="-459,533.2 -464.8,500.4 -464,500.4 -458.2,533.2 			"/>
		</g>
	</g>
</g>
<g id="Character_1_">
	<g>
		<g>
			<path class="st12" d="M-331.1,442.6c0.4,0.8,0.2,1.6-0.3,1.9c-0.5,0.2-1.2-0.2-1.6-1c-0.4-0.8-0.2-1.6,0.3-1.9
				S-331.5,441.8-331.1,442.6z"/>
			<path class="st17" d="M-330.8,444.2c0,0,0.3,5.5-0.7,8.6c2,0.7,4.2-1.1,4.2-1.1L-330.8,444.2z"/>
			<path class="st12" d="M-331,436c-0.1,0.1-0.2,0.1-0.3,0.1c-2.3,0.1-3.3,1.7-3.3,1.8c-0.1,0.2-0.5,0.3-0.7,0.2
				c-0.2-0.1-0.3-0.5-0.2-0.7c0.1-0.1,1.3-2.1,4.1-2.3c0.3,0,0.5,0.2,0.5,0.5C-330.8,435.7-330.9,435.9-331,436z"/>
			<path class="st18" d="M-301.6,441.4c3.1,10.7,6.5,19,10.8,23.7c0,0,0.1,8.4-14.3,12.4c-15.8,4.4-9.7-5.7-9.7-5.7
				c8-4.5,7.2-11.2,1.2-13.7L-301.6,441.4z"/>
			<path class="st12" d="M-287.6,463.1c-0.3-3.9-0.6-8.4-3.1-8.5c-2.7-0.1-18.1,6.8-21.3,11.6c-3.3,4.9,3.1,9.6,3.1,9.6
				L-287.6,463.1z"/>
			<g>
				<path class="st18" d="M-319.1,523.6l-13.3-0.4l0.2,11.1c0,0,11.6-1.2,12.1-4.2L-319.1,523.6z"/>
				<polygon class="st18" points="-339.4,528.6 -340.8,534.3 -332.1,534.3 -332.4,523.2 				"/>
				<g>
					<path class="st10" d="M-265.7,477.3l-0.3,2.9c-0.1,0.9-0.2,1.8-0.3,2.7c-0.2,1.8-0.5,3.6-0.8,5.4c-0.6,3.6-1.4,7.2-2.3,10.8
						c-0.9,3.6-2,7.2-3.3,10.9c-0.7,1.8-1.4,3.7-2.3,5.5c-0.9,1.9-1.8,3.7-3,5.6c-0.3,0.5-0.6,1-0.9,1.4c-0.3,0.5-0.7,1-1,1.5
						c-0.4,0.5-0.7,1-1.2,1.5l-0.7,0.7c-0.2,0.2-0.4,0.5-0.7,0.8c-2.3,2.3-4.7,3.7-6.9,4.7c-4.5,2-8.5,2.7-12.4,3.1
						c-2,0.2-3.9,0.3-5.8,0.4c-1.9,0.1-3.8,0-5.6-0.1c-1.9-0.1-3.7-0.3-5.5-0.5c-1.9-0.2-3.6-0.5-5.6-0.9l0.3-10.4
						c6.4-1.3,13.1-2.6,18.9-4.5c1.4-0.5,2.8-1,4.1-1.6c1.2-0.5,2.4-1.1,3.2-1.7c0.8-0.6,1.4-1.2,1.5-1.4l0.3-0.5
						c0.1-0.1,0.2-0.4,0.4-0.6c0.1-0.2,0.3-0.5,0.4-0.7c0.1-0.3,0.3-0.5,0.4-0.8c1-2.2,2.1-5,2.9-7.9c0.8-2.9,1.6-6,2.2-9.2
						c0.7-3.1,1.2-6.4,1.8-9.6l0.8-4.9l0.7-4.7L-265.7,477.3z"/>
					<path class="st19" d="M-265.7,477.3l-0.3,2.9c-0.1,0.9-0.2,1.8-0.3,2.7c-0.2,1.8-0.5,3.6-0.8,5.4c-0.6,3.6-1.4,7.2-2.3,10.8
						c-0.9,3.6-2,7.2-3.3,10.9c-0.7,1.8-1.4,3.7-2.3,5.5c-0.9,1.9-1.8,3.7-3,5.6c-0.3,0.5-0.6,1-0.9,1.4c-0.3,0.5-0.7,1-1,1.5
						c-0.4,0.5-0.7,1-1.2,1.5l-0.7,0.7c-0.2,0.2-0.4,0.5-0.7,0.8c-2.3,2.3-4.7,3.7-6.9,4.7c-4.5,2-8.5,2.7-12.4,3.1
						c-2,0.2-3.9,0.3-5.8,0.4c-1.9,0.1-3.8,0-5.6-0.1c-1.9-0.1-3.7-0.3-5.5-0.5c-1.9-0.2-3.6-0.5-5.6-0.9l0.3-10.4
						c6.4-1.3,13.1-2.6,18.9-4.5c1.4-0.5,2.8-1,4.1-1.6c1.2-0.5,2.4-1.1,3.2-1.7c0.8-0.6,1.4-1.2,1.5-1.4l0.3-0.5
						c0.1-0.1,0.2-0.4,0.4-0.6c0.1-0.2,0.3-0.5,0.4-0.7c0.1-0.3,0.3-0.5,0.4-0.8c1-2.2,2.1-5,2.9-7.9c0.8-2.9,1.6-6,2.2-9.2
						c0.7-3.1,1.2-6.4,1.8-9.6l0.8-4.9l0.7-4.7L-265.7,477.3z"/>
				</g>
			</g>
			<g>
				<path class="st3" d="M-324.7,490.6c3.2,13.4,7.4,35.8,8.3,65.1h58.6c0.3-7.2-0.9-48-6.8-77.5c-2.2-11.2-13.2-18.5-24.4-16
					c-0.1,0-0.2,0-0.3,0.1c-7.3,1.7-17.8,4.3-24,6.7c-0.1,0-0.2,0.1-0.3,0.1C-322.1,472.4-326.9,481.6-324.7,490.6z"/>
			</g>
			<path class="st19" d="M-320.9,509.3c0.5,2.8,0.9,5.8,1.4,8.9c4.8-5,6.3-20.3,6.3-20.3L-320.9,509.3z"/>
			<g>
				<path class="st18" d="M-369.6,524.3l-13.2-1.2l-0.4,11.1c0,0,6.8,2.2,12.3-3.5L-369.6,524.3z"/>
				<polygon class="st18" points="-389.2,526.4 -393.4,534 -383.3,534.2 -382.8,523.1 				"/>
				<path class="st3" d="M-302.8,485.5c-0.9,1.8-1.7,3.3-2.7,4.9c-0.9,1.6-1.8,3.2-2.8,4.7c-1.9,3.1-3.8,6.2-5.9,9.2
					c-4.1,6.1-8.5,12-13.7,17.6c-2.6,2.9-5.4,5.6-8.7,8.3c-0.4,0.3-0.9,0.7-1.3,1c-0.4,0.3-0.8,0.6-1.5,1c-0.6,0.4-1.2,0.7-1.8,1.1
					c-0.6,0.3-1.2,0.6-1.8,0.9c-2.4,1-4.7,1.7-6.9,2.1c-4.4,0.8-8.6,0.7-12.5,0.3c-2-0.3-3.9-0.6-5.8-1c-0.9-0.2-1.9-0.5-2.8-0.8
					c-1-0.3-1.8-0.6-2.9-1l1.7-10.3c6.3-0.9,13.1-1.9,17.7-4.1c1.2-0.5,2.2-1.1,2.9-1.7c0.4-0.3,0.7-0.6,0.9-0.8
					c0.1-0.1,0.4-0.4,0.6-0.6c0.2-0.2,0.5-0.4,0.7-0.7c2-1.9,4-4.3,6-6.7c3.9-5,7.7-10.5,11.3-16.2c1.8-2.8,3.6-5.7,5.3-8.6l2.6-4.3
					l2.5-4.3L-302.8,485.5z"/>
			</g>
			<polygon class="st18" points="-318.8,694.2 -329.8,694.2 -335.3,668.9 -324.3,668.9 			"/>
			<path class="st12" d="M-330.4,691.9h12.3c0.4,0,0.8,0.3,0.9,0.7l2.2,9.7c0.2,1-0.6,2-1.6,1.9c-4.3-0.1-6.4-0.3-11.8-0.3
				c-3.3,0-7.6,0.3-12.2,0.3c-4.5,0-5.2-4.5-3.3-5c8.4-1.8,9-4.4,11.7-6.8C-331.7,692.1-331.1,691.9-330.4,691.9z"/>
			<g class="st20">
				<polygon points="-324.3,668.9 -335.3,668.9 -332.2,682.9 -321.5,681.9 				"/>
			</g>
			<path class="st18" d="M-305.2,428.5c3.9,10.1,6.8,15.8,4.1,23.2c-4,11.1-18.2,12.2-25.1,3.4c-6.2-7.9-11.6-23.1-3.8-31.5
				C-322.2,415.4-309.1,418.4-305.2,428.5z"/>
			<path class="st12" d="M-324.4,443.7c-1.6,2.2-2.9,3.9-2.9,3.9s-3.4-8.4-2.1-12.2c-1.6-3.3-5,1.5-6.2-4.8
				c-1.2-6.3,4.2-13.1,6.2-14.5c0.3,0.5,0.3,2.3,0.3,2.3s8.1-7.2,19.6-6.2c-0.8,0.8-1.1,2.9-1.1,2.9s11.9,2,14.6,8.7
				c-1.7-0.8-3-1.1-3-1.1s3.4,4.2,2.4,10.7s-1.5,13.7-1.3,16.5c0.1,2.8-7.7,8.3-12.4,2.5C-315.1,446.6-324.4,443.7-324.4,443.7z"/>
			<path class="st18" d="M-319.4,441.5c0.7,2.5,0.3,5.1-0.5,7.1c-1.3,2.9-3.9,2.3-5.2-0.3c-1.2-2.4-1.9-6.7,0.2-8.8
				C-322.9,437.4-320.2,438.6-319.4,441.5z"/>
			<g>
				<path class="st10" d="M-298.9,555.7c0,0-50.8,18.4-52.3,42.8c-2.8,44.9,15.6,80.5,15.6,80.5l16.8-1.8c0,0-3-14.5-5.2-55.2
					c-2.8-51.1,84,1.2,66.1-66.4L-298.9,555.7z"/>
				<path class="st21" d="M-298.9,555.7c0,0-50.8,18.4-52.3,42.8c-2.8,44.9,15.6,80.5,15.6,80.5l16.8-1.8c0,0-3-14.5-5.2-55.2
					c-2.8-51.1,84,1.2,66.1-66.4L-298.9,555.7z"/>
			</g>
			<path class="st10" d="M-340.2,672.8c-0.1,0,2.7,7.5,2.7,7.5l21-2.1l-1.1-6.8L-340.2,672.8z"/>
			<g>
				<polygon class="st18" points="-366.1,695.4 -377.1,695.4 -380.3,670.1 -369.3,670.1 				"/>
				<path class="st12" d="M-377.2,691.9h12c0.4,0,0.8,0.3,0.9,0.7l2.2,9.7c0.2,1-0.5,2-1.6,1.9c-4.3-0.1-10.5-0.3-16-0.3
					c-6.3,0-7.6,0.4-15,0.4c-4.5,0-5.7-4.5-3.9-4.9c8.6-1.9,11.3-2.1,18.7-6.7C-379,692.2-378.1,691.9-377.2,691.9z"/>
				<polygon class="st19" points="-380.3,670.1 -378.5,683.9 -367.7,683.2 -369.3,670.1 				"/>
			</g>
			<g>
				<path class="st10" d="M-316.4,555.7c0,0-83.3,7.4-82.4,49.2c0.9,43.5,17.2,72.9,17.2,72.9h16.3c0,0-3.1-22.6-2.5-65.4
					c0.2-12.8,26.1-17.1,51.4-18.6c21.9-1.3,42.4-13.8,50.9-34l1.7-4.1H-316.4z"/>
				<path class="st21" d="M-316.4,555.7c0,0-83.3,7.4-82.4,49.2c0.9,43.5,17.2,72.9,17.2,72.9h16.3c0,0-3.1-22.6-2.5-65.4
					c0.2-12.8,26.1-17.1,51.4-18.6c21.9-1.3,42.4-13.8,50.9-34l1.7-4.1H-316.4z"/>
			</g>
			<path class="st10" d="M-385.4,673.4c-0.1,0,2.8,7.5,2.8,7.5l19.6-1.4l-1.1-6.8L-385.4,673.4z"/>
		</g>
		<g>
			<g>
				<path class="st12" d="M-294.6,508.7l-10.6,40.7c-2.7,10.4-4.1,21.1-4.1,31.9v18.9c0,4.8,3.5,8.7,7.9,8.7h54.2
					c4.3,0,7.9-3.9,7.9-8.7v-18.9c0-10.8,1.4-21.6,4.1-31.9l9.3-36c1.4-5.5-2.3-11-7.6-11h-53.6C-290.5,502.4-293.6,505-294.6,508.7
					z"/>
				<path class="st12" d="M-361.9,589.2l1.8,10.1c0.9,5.3,5.6,9.6,10.4,9.6h60.2c4.8,0,8-4.3,7.1-9.6l-1.8-10.1
					c-1.1-6-6.4-10.9-11.9-10.9h-57.8C-359.4,578.3-363,583.2-361.9,589.2z"/>
			</g>
			<g>
				<polygon class="st10" points="-283.7,619.1 -315.2,619.1 -318.3,608.9 -280.6,608.9 				"/>
				<g>
					<rect x="-305.1" y="619.1" class="st10" width="11.3" height="75.4"/>
					<polygon class="st22" points="-293.8,694.5 -305.1,694.5 -305.1,620.9 -293.8,622 					"/>
					<polygon class="st23" points="-296.6,694.5 -299.3,694.5 -299.3,621.5 -296.6,621.8 					"/>
				</g>
				<path class="st10" d="M-273.6,706.2h-51.8c-1.4,0-2-1.8-0.8-2.6l8.2-6c3.9-2.9,8.7-4.5,13.6-4.5h9.8c4.9,0,9.7,1.6,13.6,4.5
					l8.2,6C-271.6,704.4-272.2,706.2-273.6,706.2z"/>
			</g>
		</g>
	</g>
</g>
</svg>
