<svg xmlns="http://www.w3.org/2000/svg" viewBox="0 0 273.27 66.05"><defs><style>.cls-1{fill:#8e59e9;}.cls-2{fill:#fff;}</style></defs><g id="Layer_2" data-name="Layer 2"><g id="Layer_1-2" data-name="Layer 1"><path class="cls-1" d="M0,0H82.88V14.42H72.09V66.05H56.65V14.42H49.49V44H34.05V14.42h-7V66.05H11.63V14.42H0Z"/><path class="cls-2" d="M82.36,50.3l4.21-25.95h9.68l3,10.62a19.09,19.09,0,0,1,.58,3h.24a11,11,0,0,1,.5-3l3-10.62h9.61L117.5,50.3h-9.07l-1.17-11.64c-.07-.89-.15-1.47-.15-2.56H107c-.11.66-.35,1.67-.5,2.18l-3.85,12H97.07L93.61,38.94a11,11,0,0,1-.51-2.84h-.27c0,.5,0,1.51,0,2L91.51,50.3Z"/><path class="cls-2" d="M129.72,47.07,129,50.3h-10l9-25.95h10.42l9.26,25.95h-10l-.85-3.23Zm3.81-14h-.35a13.16,13.16,0,0,1-.43,2.92l-1.28,5h3.77l-1.2-5A27.59,27.59,0,0,1,133.53,33Z"/><path class="cls-2" d="M150.34,50.3V24.35h9v8a22.43,22.43,0,0,1-.2,3.27h.2a17.15,17.15,0,0,1,1.36-2.92l4.48-8.4H175.4l-8.09,12.72,8.95,13.23h-10.9L160.61,42a26.21,26.21,0,0,1-1.24-2.49h-.2a13,13,0,0,1,.2,2.45V50.3Z"/><path class="cls-2" d="M199.7,46.72a16,16,0,0,1-21.55,0,13.24,13.24,0,0,1-3.62-9.42,13.2,13.2,0,0,1,3.62-9.37,16,16,0,0,1,21.55,0,13.16,13.16,0,0,1,3.62,9.37A13.2,13.2,0,0,1,199.7,46.72ZM185.54,33.45a5.84,5.84,0,0,0-1.48,3.89,5.52,5.52,0,0,0,1.48,3.85,5,5,0,0,0,6.77,0,5.4,5.4,0,0,0,1.48-3.85,5.27,5.27,0,0,0-1.48-3.89,4.69,4.69,0,0,0-3.38-1.32A4.5,4.5,0,0,0,185.54,33.45Z"/><path class="cls-2" d="M219.06,35.2h14.59v.59c0,3.19-.28,7.51-3.39,10.85-2.57,2.76-6.73,4.24-11,4.24-5.45,0-8.75-2.18-10.7-4.28a12.94,12.94,0,0,1-3.34-9.22,13.1,13.1,0,0,1,3.57-9.53c2.11-2.18,5.69-4.09,10.9-4.09a15.64,15.64,0,0,1,7.63,1.83,12.17,12.17,0,0,1,5,4.79l-8.8,3.27a4,4,0,0,0-3.58-2,4.81,4.81,0,0,0-3.3,1.21,6.53,6.53,0,0,0-1.91,4.9,6.54,6.54,0,0,0,1.71,4.63,4.32,4.32,0,0,0,3.07,1.17c1.41,0,3.23-.51,3.86-2.22h-4.28Z"/><path class="cls-2" d="M243.23,47.07l-.7,3.23h-10l9-25.95H252l9.26,25.95h-10l-.86-3.23Zm3.82-14h-.35a13.77,13.77,0,0,1-.43,2.92l-1.29,5h3.78l-1.21-5A27.48,27.48,0,0,1,247.05,33Z"/><path class="cls-2" d="M263.86,50.3V24.35h9.41V50.3Z"/></g></g></svg>