<?xml version="1.0" standalone="no"?>
<!DOCTYPE svg PUBLIC "-//W3C//DTD SVG 20010904//EN"
 "http://www.w3.org/TR/2001/REC-SVG-20010904/DTD/svg10.dtd">
<svg version="1.0" xmlns="http://www.w3.org/2000/svg"
 width="664.000000pt" height="664.000000pt" viewBox="0 0 664.000000 664.000000"
 preserveAspectRatio="xMidYMid meet">
<metadata>
Created by potrace 1.14, written by Peter Selinger 2001-2017
</metadata>
<g transform="translate(0.000000,664.000000) scale(0.100000,-0.100000)"
fill="#000000" stroke="none">
<path d="M0 5382 l0 -577 465 0 465 0 0 -55 c1 -30 1 -961 1 -2067 l1 -2013
617 0 618 0 -1 2065 c-1 1136 1 2066 4 2066 14 4 537 5 547 1 9 -3 12 -251 12
-1060 0 -582 0 -1113 0 -1182 l1 -125 608 1 c334 1 612 2 617 3 7 1 10 400 10
1184 l0 1182 285 0 285 0 2 -2045 c1 -1125 2 -2055 3 -2067 l0 -23 618 0 617
0 0 2061 c0 1372 3 2063 10 2068 5 4 200 7 433 7 l422 -1 0 577 0 578 -3320 0
-3320 0 0 -578z"/>
</g>
</svg>
